# xmcd CD database file
#
# Track frame offsets:
#	150
#	16676
#	35588
#	61316
#	85275
#	97892
#	112465
#	129686
#	150530
#	167493
#
# Disc length: 2554 seconds
#
# Revision: 0
# Processed by: cddbd v1.5.2PL0 Copyright (c) Steve Scherf et al.
# Submitted via: CDex 1.51
#
DISCID=7909f80a
DTITLE=The Mystery Man - Hits of VANGELIS
DYEAR=2006
DGENRE=New Age
TTITLE0=CHARIOTS OF FIRE
TTITLE1=I HEAR YOU NOW
TTITLE2=ALPHA
TTITLE3=LA PETITE FILLE DE LA MER
TTITLE4=HYMNE
TTITLE5=MISSING
TTITLE6=CLOSING TITLES FROM "MUTINY ON THE BOUNTY" 
TTITLE7=ERIC´S THEME
TTITLE8=ANTARCTICA (MAIN THEME)
TTITLE9=PULSTAR
EXTD=YEAR: 2006
EXTT0=
EXTT1=
EXTT2=
EXTT3=
EXTT4=
EXTT5=
EXTT6=
EXTT7=
EXTT8=
EXTT9=
PLAYORDER=
